<?xml version="1.0" encoding="utf-8"?>
<!-- Generator: Adobe Illustrator 24.0.2, SVG Export Plug-In . SVG Version: 6.00 Build 0)  -->
<svg version="1.1" id="Layer_1" xmlns="http://www.w3.org/2000/svg" xmlns:xlink="http://www.w3.org/1999/xlink" x="0px" y="0px"
	 viewBox="0 0 613 65.2" style="enable-background:new 0 0 613 65.2;" xml:space="preserve">
<style type="text/css">
	.st0{fill:#EB252B;}
	.st1{fill:none;}
	.st2{fill:#FFFFFF;}
</style>
<g>
	<path class="st0" d="M588.8,2.2h-28.9c-12.9,0-23.4,10.5-23.4,23.4v5.9c0,12.9,10.5,23.4,23.4,23.4h28.9
		c12.9,0,23.4-10.5,23.4-23.4v-5.9C612.2,12.7,601.7,2.2,588.8,2.2z"/>
	<polygon class="st0" points="599.3,63.4 598.4,46.5 585.1,54.2 	"/>
</g>
<g>
	<rect x="543.7" y="16.8" class="st1" width="61.1" height="27.5"/>
	<path class="st2" d="M546.5,24.1c0-4.5,1.9-8,4.7-9.7l1.6,1.5c-1.8,1.2-3.2,4.1-3.2,8.2v9c0,4.3,1.3,6.9,3.2,8.1l-1.6,1.5
		c-2.8-1.7-4.7-5.2-4.7-9.6V24.1z"/>
	<path class="st2" d="M558.5,23.5c0.6-1.3,2.2-2.1,3.6-2.1c1.6,0,3,0.7,3.4,2.3c0.7-1.2,2-2.3,4-2.3c2.6,0,4,1.3,4,4.2v10.7h-3.6
		v-9.9c0-1.3-0.5-2-1.4-2c-1.2,0-2.2,0.8-2.2,2.2v9.7h-3.6v-10c0-1.3-0.5-1.9-1.4-1.9c-1,0-2.2,0.9-2.2,2.2v9.7h-3.6V21.7h2.7
		L558.5,23.5z"/>
	<path class="st2" d="M583.7,25.2c-0.6-0.4-1.3-0.8-2.6-0.8c-1,0-1.6,0.4-1.6,1.5c0,0.7,0.4,1.3,1.8,1.9c2.6,1,3.7,2.5,3.7,4.5
		c0,2.6-1.8,4.4-4.5,4.4c-1.8,0-3.8-0.5-4.8-1.8l1.5-2.4c0.8,0.8,1.9,1.2,2.9,1.2c1.2,0,1.6-0.5,1.6-1.4c0-0.7-0.3-1.3-2-2
		c-2.4-1-3.6-2.4-3.6-4.5c0-3.1,2.3-4.4,4.6-4.4c1.7,0,2.9,0.3,4.3,1.3L583.7,25.2z"/>
	<path class="st2" d="M591.1,36.4h-3.6V16.8h3.6V36.4z"/>
	<path class="st2" d="M600.9,33c0,4.4-1.9,8-4.7,9.7l-1.6-1.3c1.8-1.3,3.1-4.3,3.1-8.4v-8.8c0-4.1-1.1-6.9-2.9-8.2l1.4-1.5
		c2.8,1.7,4.7,5.3,4.7,9.7V33z"/>
</g>
<g>
	<rect x="-2.9" y="4.1" class="st1" width="179.6" height="72"/>
	<path d="M0.9,4.1h19.9l13.7,33.4h0.7L48.9,4.1h19.9V63H53.1V28.9h-0.5L39.5,62.5h-9.4L17,28.7h-0.5V63H0.9V4.1z"/>
	<path d="M108.1,22.5c-0.2-1.9-0.9-3.4-2.1-4.5c-1.3-1.1-3.2-1.6-5.8-1.6c-2.5,0-4.3,0.4-5.4,1.3c-1.1,0.8-1.7,1.9-1.7,3.2
		c-0.1,1.4,0.5,2.5,1.8,3.4s3.3,1.6,6.1,2.2l4.8,1c6.5,1.4,11.2,3.6,14.1,6.7s4.3,6.9,4.3,11.4c0,5.8-2.1,10.3-6.4,13.4
		c-4.2,3.1-10.1,4.7-17.6,4.7c-5.1,0-9.6-0.8-13.4-2.3s-6.8-3.9-8.9-7c-2.1-3.2-3.2-7.2-3.2-12.1h15.2c0.1,2.7,1.1,4.8,2.8,6.2
		c1.7,1.4,4.1,2.1,7.2,2.1c2.6,0,4.5-0.5,5.8-1.4s2-2.1,2-3.6c0-1.3-0.7-2.5-2-3.4s-3.6-1.7-6.9-2.4l-5.9-1.3
		c-5.2-1.1-9.3-3-12.3-5.7s-4.5-6.3-4.5-10.9c0-3.7,1-7,3-9.8s4.8-5,8.4-6.6s7.7-2.4,12.4-2.4c4.8,0,8.9,0.8,12.3,2.4
		c3.5,1.6,6.2,3.8,8,6.7c1.9,2.9,2.8,6.3,2.9,10.1h-15V22.5z"/>
	<path d="M130.3,63V4.1h16v46h23.8V63H130.3z"/>
</g>
<g>
	<rect x="179.9" y="4.4" class="st1" width="350.6" height="72.3"/>
	<path d="M233.8,4.4v58.9h-6.9L194.8,17h-0.6v46.3h-7.1V4.4h6.9l32.2,46.4h0.6V4.4H233.8z"/>
	<path d="M260.2,64.2c-4,0-7.5-0.9-10.5-2.8c-3-1.9-5.3-4.6-7-8s-2.5-7.4-2.5-12s0.8-8.6,2.5-12.1c1.7-3.4,4-6.1,7-8
		s6.5-2.8,10.5-2.8s7.5,0.9,10.5,2.8s5.3,4.6,7,8s2.5,7.5,2.5,12.1s-0.8,8.6-2.5,12s-4,6.1-7,8S264.2,64.2,260.2,64.2z M260.2,58.1
		c3,0,5.5-0.8,7.5-2.3s3.4-3.6,4.3-6.1s1.4-5.3,1.4-8.2c0-3-0.5-5.7-1.4-8.3s-2.4-4.6-4.3-6.2s-4.5-2.4-7.5-2.4s-5.5,0.8-7.5,2.4
		s-3.4,3.6-4.3,6.2c-0.9,2.6-1.4,5.3-1.4,8.3s0.5,5.7,1.4,8.2s2.4,4.6,4.3,6.1C254.7,57.3,257.2,58.1,260.2,58.1z"/>
	<path d="M305,19.1v5.8h-9.4v25.8c0,1.9,0.3,3.4,0.8,4.3c0.6,0.9,1.3,1.6,2.2,1.9c0.9,0.3,1.8,0.5,2.8,0.5c0.7,0,1.4,0,1.8-0.1
		c0.5-0.1,0.9-0.2,1.2-0.2l1.4,6.1c-0.5,0.2-1.1,0.3-1.9,0.5S302,64,300.8,64c-1.9,0-3.8-0.4-5.6-1.2c-1.8-0.8-3.3-2.1-4.5-3.8
		s-1.8-3.8-1.8-6.4V24.8h-6.7V19h6.7V8.5h6.8v10.6H305z"/>
	<path d="M328.4,64.2c-4.3,0-7.9-0.9-11-2.8s-5.4-4.5-7.1-7.9s-2.5-7.4-2.5-11.9s0.8-8.5,2.5-12s4-6.2,7-8.1s6.5-2.9,10.5-2.9
		c2.3,0,4.6,0.4,6.8,1.2c2.2,0.8,4.3,2,6.1,3.7c1.8,1.7,3.3,4,4.4,6.8s1.6,6.3,1.6,10.4v2.9h-32.1c0.2,4.7,1.5,8.3,4,10.8
		s5.8,3.8,9.8,3.8c2.7,0,5-0.6,6.9-1.7c1.9-1.2,3.3-2.9,4.2-5.2L346,53c-1,3.3-3.1,6-6.2,8.1C336.7,63.2,332.9,64.2,328.4,64.2z
		 M314.7,37.6h25.2c0-3.7-1.1-6.8-3.3-9.3c-2.2-2.5-5.1-3.7-8.8-3.7c-2.6,0-4.8,0.6-6.7,1.8c-1.9,1.2-3.4,2.8-4.5,4.8
		C315.4,33.2,314.8,35.3,314.7,37.6z"/>
	<path d="M353.2,63.3V4.4h6.8v21.8h0.6c0.5-0.8,1.2-1.8,2.1-2.9c0.9-1.2,2.2-2.3,3.9-3.2c1.7-0.9,4-1.4,6.8-1.4c3.7,0,7,0.9,9.8,2.8
		s5.1,4.5,6.6,7.9c1.6,3.4,2.4,7.4,2.4,12.1s-0.8,8.7-2.4,12.2c-1.6,3.4-3.8,6.1-6.6,7.9c-2.8,1.9-6.1,2.8-9.8,2.8
		c-2.8,0-5.1-0.5-6.8-1.4c-1.7-1-3-2-3.9-3.3c-0.9-1.2-1.6-2.2-2.1-3h-0.8v6.8h-6.6V63.3z M359.8,41.2c0,5,1.1,9.1,3.3,12.2
		c2.2,3.1,5.3,4.7,9.4,4.7c2.8,0,5.2-0.8,7.1-2.3s3.3-3.5,4.3-6.1s1.5-5.4,1.5-8.6c0-3.1-0.5-5.9-1.4-8.4s-2.4-4.5-4.3-6
		s-4.3-2.2-7.2-2.2c-4.1,0-7.3,1.5-9.4,4.6S359.8,36.2,359.8,41.2z"/>
	<path d="M415.6,64.2c-4,0-7.5-0.9-10.5-2.8c-3-1.9-5.3-4.6-7-8s-2.5-7.4-2.5-12s0.8-8.6,2.5-12.1c1.7-3.4,4-6.1,7-8
		s6.5-2.8,10.5-2.8s7.5,0.9,10.5,2.8s5.3,4.6,7,8s2.5,7.5,2.5,12.1s-0.8,8.6-2.5,12s-4,6.1-7,8S419.6,64.2,415.6,64.2z M415.6,58.1
		c3,0,5.5-0.8,7.5-2.3s3.4-3.6,4.3-6.1s1.4-5.3,1.4-8.2c0-3-0.5-5.7-1.4-8.3s-2.4-4.6-4.3-6.2s-4.5-2.4-7.5-2.4s-5.5,0.8-7.5,2.4
		s-3.4,3.6-4.3,6.2s-1.4,5.3-1.4,8.3s0.5,5.7,1.4,8.2s2.4,4.6,4.3,6.1C410.1,57.3,412.6,58.1,415.6,58.1z"/>
	<path d="M459.1,64.2c-4,0-7.5-0.9-10.5-2.8c-3-1.9-5.3-4.6-7-8s-2.5-7.4-2.5-12s0.8-8.6,2.5-12.1c1.7-3.4,4-6.1,7-8
		s6.5-2.8,10.5-2.8s7.5,0.9,10.5,2.8s5.3,4.6,7,8s2.5,7.5,2.5,12.1s-0.8,8.6-2.5,12s-4,6.1-7,8S463.1,64.2,459.1,64.2z M459.1,58.1
		c3,0,5.5-0.8,7.5-2.3s3.4-3.6,4.3-6.1s1.4-5.3,1.4-8.2c0-3-0.5-5.7-1.4-8.3s-2.4-4.6-4.3-6.2s-4.5-2.4-7.5-2.4s-5.5,0.8-7.5,2.4
		s-3.4,3.6-4.3,6.2s-1.4,5.3-1.4,8.3s0.5,5.7,1.4,8.2s2.4,4.6,4.3,6.1C453.6,57.3,456.1,58.1,459.1,58.1z"/>
	<path d="M484.6,63.3V4.4h6.8v34.4h0.8l19.3-19.7h8.4L501.3,38l20.1,25.3h-8.6l-16.5-20.9l-4.7,4.4v16.5
		C491.6,63.3,484.6,63.3,484.6,63.3z"/>
</g>
</svg>
