<?xml version="1.0" encoding="utf-8"?>
<!-- Generator: Adobe Illustrator 24.0.2, SVG Export Plug-In . SVG Version: 6.00 Build 0)  -->
<svg version="1.1" id="Layer_1" xmlns="http://www.w3.org/2000/svg" xmlns:xlink="http://www.w3.org/1999/xlink" x="0px" y="0px"
	 viewBox="0 0 160 104" style="enable-background:new 0 0 160 104;" xml:space="preserve">
<style type="text/css">
	.st0{fill:#DBDADA;}
	.st1{fill:lightGrey;}
	.st2{fill:none;}
</style>
<g>
	<g>
		<g>
			<polygon class="st0" points="121.9,103.4 150.9,103.4 131.1,31.7 102.2,31.7 102.2,31.7 90.8,41.6 82.8,13.2 53.9,13.2 
				41.9,23.6 35.1,0.1 6.3,0.1 35.9,103.4 64.8,103.4 49.6,50.6 62,41.9 79.2,103.4 108.1,103.4 98.4,68.8 110.1,60.5 			"/>
			<polygon class="st1" points="116.1,103.4 145.2,103.4 125.4,31.7 96.5,31.7 96.5,31.7 85.1,41.6 77.1,13.2 48.2,13.2 36.1,23.6 
				29.4,0.1 0.6,0.1 30.1,103.4 59.1,103.4 43.9,50.6 56.3,41.9 73.4,103.4 102.4,103.4 92.6,68.8 104.4,60.5 			"/>
		</g>
	</g>
	<g>
		<rect x="152" y="96.4" class="st2" width="9.7" height="14.9"/>
		<path class="st0" d="M159.9,100.3c0,1.9-1.5,3.5-3.5,3.5c-2,0-3.5-1.5-3.5-3.5c0-1.9,1.6-3.4,3.5-3.4
			C158.3,96.9,159.9,98.4,159.9,100.3z M153.7,100.3c0,1.5,1.1,2.7,2.7,2.7c1.5,0,2.6-1.2,2.6-2.7c0-1.5-1.1-2.7-2.6-2.7
			C154.9,97.6,153.7,98.8,153.7,100.3z M155.8,102.1H155v-3.4c0.3-0.1,0.7-0.1,1.3-0.1c0.6,0,0.9,0.1,1.2,0.2
			c0.2,0.1,0.3,0.4,0.3,0.7c0,0.4-0.3,0.7-0.7,0.8v0c0.3,0.1,0.5,0.4,0.6,0.8c0.1,0.5,0.2,0.7,0.3,0.9h-0.9
			c-0.1-0.1-0.2-0.4-0.3-0.8c-0.1-0.4-0.3-0.5-0.7-0.5h-0.4V102.1z M155.9,100.2h0.4c0.4,0,0.8-0.1,0.8-0.5c0-0.3-0.2-0.5-0.7-0.5
			c-0.2,0-0.4,0-0.4,0V100.2z"/>
	</g>
</g>
<g>
</g>
<g>
</g>
<g>
</g>
<g>
</g>
<g>
</g>
<g>
</g>
<g>
</g>
<g>
</g>
<g>
</g>
<g>
</g>
<g>
</g>
<g>
</g>
<g>
</g>
<g>
</g>
<g>
</g>
</svg>
