<?xml version="1.0" encoding="utf-8"?>
<!-- Generator: Adobe Illustrator 24.0.2, SVG Export Plug-In . SVG Version: 6.00 Build 0)  -->
<svg version="1.1" id="Layer_1" xmlns="http://www.w3.org/2000/svg" xmlns:xlink="http://www.w3.org/1999/xlink" x="0px" y="0px"
	 viewBox="0 0 350 65" style="enable-background:new 0 0 350 65;" xml:space="preserve">
<style type="text/css">
	.st0{fill:none;}
	.st1{fill:#231F20;}
	.st2{fill:#DBDADA;}
	.st3{fill:#E8272D;}
</style>
<g>
	<rect x="-3.6" y="5.1" class="st0" width="257.3" height="81"/>
	<path class="st1" d="M0.2,5.1h19.9l13.7,33.4h0.7L48.2,5.1h19.9V64H52.4V29.9H52L38.9,63.5h-9.4L16.3,29.7h-0.5V64H0.2V5.1z"/>
	<path class="st1" d="M75.9,64V19.8h15.9V64H75.9z M83.9,15.2c-2.1,0-4-0.7-5.5-2.1C76.8,11.6,76,9.9,76,7.9s0.8-3.7,2.3-5.1
		c1.5-1.4,3.4-2.1,5.5-2.1c2.2,0,4,0.7,5.5,2.1c1.5,1.4,2.3,3.1,2.3,5.1s-0.8,3.7-2.3,5.1C87.9,14.5,86,15.2,83.9,15.2z"/>
	<path class="st1" d="M99.9,64V19.8h15.1v8.4h0.5c0.9-2.8,2.5-4.9,4.7-6.6c2.2-1.6,4.9-2.4,7.9-2.4c3.1,0,5.8,0.8,8,2.5
		c2.2,1.6,3.6,3.8,4.1,6.5h0.5c0.7-2.7,2.3-4.9,4.8-6.5c2.4-1.6,5.3-2.5,8.6-2.5c4.2,0,7.7,1.4,10.3,4.1c2.6,2.7,4,6.3,4,10.9V64
		h-15.9V38.2c0-1.9-0.5-3.5-1.5-4.6c-1-1.1-2.3-1.7-3.9-1.7c-1.6,0-2.9,0.6-3.9,1.7c-0.9,1.1-1.4,2.6-1.4,4.6V64h-15.2V38.2
		c0-1.9-0.5-3.5-1.5-4.6c-1-1.1-2.3-1.7-3.9-1.7c-1.6,0-2.9,0.6-3.9,1.7c-0.9,1.1-1.4,2.6-1.4,4.6V64H99.9z"/>
	<path class="st1" d="M176,64V19.8h15.9V64H176z M184,15.2c-2.1,0-4-0.7-5.5-2.1c-1.5-1.4-2.3-3.1-2.3-5.1s0.8-3.7,2.3-5.1
		c1.5-1.4,3.4-2.1,5.5-2.1c2.2,0,4,0.7,5.5,2.1c1.5,1.4,2.3,3.1,2.3,5.1s-0.8,3.7-2.3,5.1C188,14.5,186.2,15.2,184,15.2z"/>
	<path class="st1" d="M213.7,19.8l6.4,13.7l6.8-13.7h15.8l-11.9,22.1L243.3,64h-15.7l-7.5-14l-7.3,14H197l12.5-22.1l-11.7-22.1
		H213.7z"/>
</g>
<g>
	<g>
		<polygon class="st2" points="326.9,64.7 343.7,64.7 332.2,23.2 315.6,23.2 315.6,23.2 309,29 304.4,12.5 287.7,12.5 280.7,18.6 
			276.8,5 260.2,5 277.3,64.7 294,64.7 285.2,34.2 292.3,29.2 302.2,64.7 319,64.7 313.4,44.6 320.1,39.9 		"/>
		<polygon class="st3" points="323.6,64.7 340.4,64.7 328.9,23.2 312.3,23.2 312.3,23.2 305.7,29 301.1,12.5 284.4,12.5 277.4,18.6 
			273.5,5 256.9,5 273.9,64.7 290.7,64.7 281.9,34.2 289,29.2 298.9,64.7 315.7,64.7 310,44.6 316.8,39.9 		"/>
	</g>
</g>
<g>
	<rect x="344.3" y="60.6" class="st0" width="5.6" height="8.6"/>
	<path class="st2" d="M348.8,62.9c0,1.1-0.9,2-2,2c-1.1,0-2-0.9-2-2c0-1.1,0.9-2,2-2C348,60.9,348.8,61.8,348.8,62.9z M345.3,62.9
		c0,0.9,0.6,1.6,1.5,1.6c0.9,0,1.5-0.7,1.5-1.6c0-0.9-0.6-1.6-1.5-1.6C346,61.3,345.3,62,345.3,62.9z M346.5,63.9h-0.5v-2
		c0.2,0,0.4-0.1,0.8-0.1c0.4,0,0.5,0.1,0.7,0.1c0.1,0.1,0.2,0.2,0.2,0.4c0,0.2-0.2,0.4-0.4,0.5v0c0.2,0.1,0.3,0.2,0.4,0.5
		c0.1,0.3,0.1,0.4,0.1,0.5h-0.5c-0.1-0.1-0.1-0.3-0.2-0.5c0-0.2-0.2-0.3-0.4-0.3h-0.2V63.9z M346.5,62.8h0.2c0.3,0,0.5-0.1,0.5-0.3
		c0-0.2-0.1-0.3-0.4-0.3c-0.1,0-0.2,0-0.3,0V62.8z"/>
</g>
<g>
</g>
<g>
</g>
<g>
</g>
<g>
</g>
<g>
</g>
<g>
</g>
<g>
</g>
<g>
</g>
<g>
</g>
<g>
</g>
<g>
</g>
<g>
</g>
<g>
</g>
<g>
</g>
<g>
</g>
</svg>
