<svg id="Layer_1" data-name="Layer 1" xmlns="http://www.w3.org/2000/svg" viewBox="0 0 261.33 61.51"><defs><style>.cls-1{fill:#ea242a;}.cls-2{fill:#fff;}.cls-3{fill:#231f20;}</style></defs><title>MSLjs</title><rect class="cls-1" x="185.58" width="75.76" height="52.71" rx="23.42"/><polygon class="cls-1" points="248.47 61.25 247.58 44.27 234.2 51.99 248.47 61.25"/><path class="cls-2" d="M209.05,38.16h-5.37v-5h5.37Z" transform="translate(0.34 -0.04)"/><path class="cls-2" d="M219.6,36.35c0,6.43-2.61,8.83-8.74,10.63l-1.35-4.45c3.24-1.22,4.79-2.31,4.79-6.76v-19h5.3Zm0-22.26h-5.29V9.6h5.29Z" transform="translate(0.34 -0.04)"/><path class="cls-2" d="M234.88,21.86a6.11,6.11,0,0,0-3.82-1.22c-1.39,0-2.39.63-2.39,2.15,0,1,.58,1.93,2.64,2.81,3.74,1.43,5.34,3.65,5.34,6.55a6.2,6.2,0,0,1-6.6,6.43c-2.56,0-5.46-.8-7.05-2.56l2.14-3.45a6.16,6.16,0,0,0,4.16,1.77c1.68,0,2.35-.67,2.35-2.1,0-1-.51-1.85-2.86-2.86-3.53-1.43-5.21-3.49-5.21-6.59,0-4.54,3.41-6.47,6.72-6.47a9.85,9.85,0,0,1,6.31,1.93Z" transform="translate(0.34 -0.04)"/><path class="cls-3" d="M-.34,1.93H19.57L33.26,35.3H34L47.65,1.93H67.56V60.86H51.91V26.79h-.46L38.33,60.39H28.89L15.77,26.56h-.46v34.3H-.34Z" transform="translate(0.34 -0.04)"/><path class="cls-3" d="M106.92,20.34a6.26,6.26,0,0,0-2.14-4.49q-1.92-1.61-5.8-1.61c-2.47,0-4.28.42-5.41,1.27a3.91,3.91,0,0,0-1.72,3.22,3.74,3.74,0,0,0,1.82,3.43,18,18,0,0,0,6.12,2.21l4.83,1q9.75,2.1,14.07,6.72A16.08,16.08,0,0,1,123,43.48q0,8.72-6.39,13.39T99.1,61.55a36,36,0,0,1-13.4-2.28,18.54,18.54,0,0,1-8.86-7q-3.15-4.74-3.18-12.13H88.85a8,8,0,0,0,2.81,6.17,11.12,11.12,0,0,0,7.21,2.11A10.12,10.12,0,0,0,104.69,47a4.25,4.25,0,0,0,2-3.56,4,4,0,0,0-2-3.36,21,21,0,0,0-6.88-2.4L92,36.46q-7.83-1.71-12.33-5.69T75.16,19.88a16.22,16.22,0,0,1,3-9.82,20,20,0,0,1,8.43-6.58A30.73,30.73,0,0,1,99,1.12a29.4,29.4,0,0,1,12.34,2.39,18.54,18.54,0,0,1,8.05,6.72,18.23,18.23,0,0,1,2.86,10.11Z" transform="translate(0.34 -0.04)"/><path class="cls-3" d="M129.13,60.86V1.93h16V48H169v12.9Z" transform="translate(0.34 -0.04)"/></svg>